<svg width="24" height="24" viewBox="0 0 24 24" fill="none" xmlns="http://www.w3.org/2000/svg">
<path fill-rule="evenodd" clip-rule="evenodd" d="M2.469 9.969C2.53867 9.89916 2.62143 9.84374 2.71255 9.80593C2.80367 9.76812 2.90135 9.74866 3 9.74866C3.09865 9.74866 3.19633 9.76812 3.28745 9.80593C3.37857 9.84374 3.46133 9.89916 3.531 9.969L12 18.4395L20.469 9.969C20.6098 9.82817 20.8008 9.74905 21 9.74905C21.1992 9.74905 21.3902 9.82817 21.531 9.969C21.6718 10.1098 21.7509 10.3008 21.7509 10.5C21.7509 10.6992 21.6718 10.8902 21.531 11.031L12.531 20.031C12.4613 20.1008 12.3786 20.1563 12.2874 20.1941C12.1963 20.2319 12.0986 20.2513 12 20.2513C11.9013 20.2513 11.8037 20.2319 11.7125 20.1941C11.6214 20.1563 11.5387 20.1008 11.469 20.031L2.469 11.031C2.39915 10.9613 2.34374 10.8786 2.30593 10.7875C2.26812 10.6963 2.24866 10.5987 2.24866 10.5C2.24866 10.4014 2.26812 10.3037 2.30593 10.2126C2.34374 10.1214 2.39915 10.0387 2.469 9.969Z" fill="#3AAED8"/>
<path fill-rule="evenodd" clip-rule="evenodd" d="M2.469 3.969C2.53867 3.89916 2.62143 3.84374 2.71255 3.80593C2.80367 3.76812 2.90135 3.74866 3 3.74866C3.09865 3.74866 3.19633 3.76812 3.28745 3.80593C3.37857 3.84374 3.46133 3.89916 3.531 3.969L12 12.4395L20.469 3.969C20.5387 3.89927 20.6215 3.84396 20.7126 3.80622C20.8037 3.76848 20.9014 3.74905 21 3.74905C21.0986 3.74905 21.1963 3.76848 21.2874 3.80622C21.3785 3.84396 21.4613 3.89927 21.531 3.969C21.6007 4.03873 21.656 4.12152 21.6938 4.21263C21.7315 4.30374 21.7509 4.40139 21.7509 4.5C21.7509 4.59862 21.7315 4.69627 21.6938 4.78738C21.656 4.87849 21.6007 4.96127 21.531 5.031L12.531 14.031C12.4613 14.1008 12.3786 14.1563 12.2874 14.1941C12.1963 14.2319 12.0986 14.2513 12 14.2513C11.9013 14.2513 11.8037 14.2319 11.7125 14.1941C11.6214 14.1563 11.5387 14.1008 11.469 14.031L2.469 5.031C2.39915 4.96133 2.34374 4.87857 2.30593 4.78745C2.26812 4.69633 2.24866 4.59865 2.24866 4.5C2.24866 4.40135 2.26812 4.30367 2.30593 4.21255C2.34374 4.12143 2.39915 4.03867 2.469 3.969Z" fill="#3AAED8"/>
</svg>
