<svg width="131" height="131" viewBox="0 0 131 131" fill="none" xmlns="http://www.w3.org/2000/svg">
<path d="M7.27783 80.0556H123.722V50.9445H7.27783V80.0556ZM36.3889 61.8611H87.3334V69.1389H36.3889V61.8611ZM21.8334 61.8611H29.1112V69.1389H21.8334V61.8611Z" fill="#3AAED8"/>
<path d="M116.444 14.5555H14.5556C12.6254 14.5555 10.7743 15.3223 9.40944 16.6872C8.0446 18.052 7.27783 19.9031 7.27783 21.8333V43.6667H123.722V21.8333C123.722 19.9031 122.956 18.052 121.591 16.6872C120.226 15.3223 118.375 14.5555 116.444 14.5555ZM29.1112 32.75H21.8334V25.4722H29.1112V32.75ZM87.3334 32.75H36.3889V25.4722H87.3334V32.75Z" fill="white"/>
<path d="M7.27783 109.167C7.27783 111.097 8.0446 112.948 9.40944 114.313C10.7743 115.678 12.6254 116.444 14.5556 116.444H116.444C118.375 116.444 120.226 115.678 121.591 114.313C122.956 112.948 123.722 111.097 123.722 109.167V87.3333H7.27783V109.167ZM36.3889 98.25H87.3334V105.528H36.3889V98.25ZM21.8334 98.25H29.1112V105.528H21.8334V98.25Z" fill="white"/>
</svg>
