<svg width="1311" height="602" viewBox="0 0 1311 602" fill="none" xmlns="http://www.w3.org/2000/svg">
<path fill-rule="evenodd" clip-rule="evenodd" d="M0 558.5V602H5V559H62.5V602H67.5V559H124.5V602H125H129.5H130V559H186.5V602H187H191.5H192V559H249V602H254V559H311V602H311.5H316H316.5V559H373V602H373.5H378H378.5V559H435.5V602H440.5V559H497.5V602H498H502.5H503V559H559.5V602H560H564.5H565V559H622V602H627V559L684 559V602H684.5H689H689.5V559H746V602H746.5H751H751.5V559H808.5V602H813.5V559H870.5V602H871H875.5H876V559H932.5V602H933H937.5H938V559H995V602H1000V559H1057V602H1057.5H1062H1062.5V559H1119V602H1119.5H1124H1124.5V559H1181.5V602H1186.5V559H1243.5V602H1244H1248.5H1249V559H1306V602H1311L1311 559V558.5V554V553.5V497V496.5V492V491.5V434.5V429.5V372.5V372V367.5V367V310.5V310V305.5V305V248V243V186V185.5V181V180.5V124V123.5V119V118.5V61.4999V56.4999L1311 0H1306V56.4999L1249 56.4999V0H1248.5H1244H1243.5V56.4999H1186.5V0H1181.5V56.4999L1124.5 56.5V0H1124H1119.5H1119V56.5L1062.5 56.5V0H1062H1057.5H1057V56.5L1000 56.5V0H995V56.5H938V0H937.5H933H932.5V56.5L876 56.5V0H875.5H871H870.5V56.5L813.5 56.5V0H808.5V56.5H751.5V0H751H746.5H746V56.5L689.5 56.5V0H689H684.5H684V56.5L627 56.5V0H622V56.5L565 56.5V0H564.5H560H559.5V56.5H503V0H502.5H498H497.5V56.5L440.5 56.5V0H435.5V56.5L378.5 56.5V0H378H373.5H373V56.5H316.5V0H316H311.5H311V56.5L254 56.5V0H249V56.5L192 56.5V0H191.5H187H186.5V56.5L130 56.5V0H129.5H125H124.5V56.5H67.5V0H62.5V56.5L5 56.5V0H0V553.5V558.5ZM5 553.5H62.5V497H5V553.5ZM5 491.5H62.5V434.5H5V491.5ZM5 429.5H62.5V372.5H5V429.5ZM5 367H62.5V310.5H5V367ZM5 305H62.5V248H5V305ZM5 243H62.5V186H5V243ZM5 180.5H62.5V124H5V180.5ZM5 118.5H62.5V61.5L5 61.5V118.5ZM67.5 61.5V118.5L124.5 118.5V61.5H67.5ZM130 61.5V118.5H186.5V61.5L130 61.5ZM192 61.5V118.5L249 118.5V61.5L192 61.5ZM254 61.5V118.5H311V61.5L254 61.5ZM316.5 61.5V118.5H373V61.5H316.5ZM378.5 61.5V118.5L435.5 118.5V61.5L378.5 61.5ZM440.5 61.5V118.5H497.5V61.5L440.5 61.5ZM503 61.5V118.5H559.5V61.5H503ZM565 61.5V118.5L622 118.5V61.5L565 61.5ZM627 61.5V118.5H684V61.5L627 61.5ZM689.5 61.5V118.5L746 118.5V61.5L689.5 61.5ZM751.5 61.5V118.5H808.5V61.5H751.5ZM813.5 61.5V118.5H870.5V61.5L813.5 61.5ZM876 61.5V118.5L932.5 118.5V61.5L876 61.5ZM938 61.5V118.5H995V61.5H938ZM1000 61.5V118.5H1057V61.5L1000 61.5ZM1062.5 61.5V118.5L1119 118.5V61.5L1062.5 61.5ZM1124.5 61.5V118.5H1181.5V61.4999L1124.5 61.5ZM1186.5 61.4999V118.5L1243.5 118.5V61.4999H1186.5ZM1249 61.4999V118.5H1306V61.4999L1249 61.4999ZM1306 124H1249V180.5H1306V124ZM1306 186H1249V243H1306V186ZM1306 248H1249V305H1306V248ZM1306 310.5H1249V367H1306V310.5ZM1306 372.5H1249V429.5H1306V372.5ZM1306 434.5H1249V491.5H1306V434.5ZM1306 497H1249V553.5H1306V497ZM1243.5 553.5V497H1186.5V553.5H1243.5ZM1181.5 553.5V497H1124.5V553.5H1181.5ZM1119 553.5V497H1062.5V553.5H1119ZM1057 553.5V497H1000V553.5H1057ZM995 553.5V497L938 497V553.5H995ZM932.5 553.5V497H876V553.5H932.5ZM870.5 553.5V497H813.5V553.5H870.5ZM808.5 553.5V497H751.5V553.5H808.5ZM746 553.5V497H689.5V553.5H746ZM684 553.5V497H627V553.5L684 553.5ZM622 553.5V497H565V553.5H622ZM559.5 553.5V497H503V553.5H559.5ZM497.5 553.5V497H440.5V553.5H497.5ZM435.5 553.5V497H378.5V553.5H435.5ZM373 553.5V497L316.5 497V553.5H373ZM311 553.5V497H254V553.5H311ZM249 553.5V497H192V553.5H249ZM186.5 553.5V497H130V553.5H186.5ZM124.5 553.5V497H67.5V553.5H124.5ZM67.5 491.5H124.5V434.5H67.5V491.5ZM67.5 429.5H124.5V372.5H67.5V429.5ZM67.5 367H124.5V310.5H67.5V367ZM67.5 305H124.5V248H67.5V305ZM67.5 243H124.5V186H67.5V243ZM67.5 180.5H124.5V124L67.5 124V180.5ZM130 124V180.5L186.5 180.5V124H130ZM192 124V180.5H249V124L192 124ZM254 124V180.5H311V124H254ZM316.5 124V180.5H373V124H316.5ZM378.5 124V180.5H435.5V124L378.5 124ZM440.5 124V180.5L497.5 180.5V124H440.5ZM503 124V180.5H559.5V124H503ZM565 124V180.5H622V124L565 124ZM627 124V180.5H684V124H627ZM689.5 124V180.5H746V124L689.5 124ZM751.5 124V180.5H808.5V124H751.5ZM813.5 124V180.5L870.5 180.5V124H813.5ZM876 124V180.5H932.5V124L876 124ZM938 124V180.5H995V124H938ZM1000 124V180.5H1057V124H1000ZM1062.5 124V180.5H1119V124L1062.5 124ZM1124.5 124V180.5L1181.5 180.5V124H1124.5ZM1186.5 124V180.5H1243.5V124L1186.5 124ZM1243.5 186H1186.5V243H1243.5V186ZM1243.5 248H1186.5V305H1243.5V248ZM1243.5 310.5H1186.5V367H1243.5V310.5ZM1243.5 372.5H1186.5V429.5H1243.5V372.5ZM1243.5 434.5H1186.5V491.5H1243.5V434.5ZM1181.5 491.5V434.5H1124.5V491.5H1181.5ZM1119 491.5V434.5H1062.5V491.5H1119ZM1057 491.5V434.5H1000V491.5H1057ZM995 491.5V434.5L938 434.5V491.5L995 491.5ZM932.5 491.5V434.5H876V491.5H932.5ZM870.5 491.5V434.5H813.5V491.5H870.5ZM808.5 491.5V434.5H751.5V491.5H808.5ZM746 491.5V434.5H689.5V491.5H746ZM684 491.5V434.5H627V491.5H684ZM622 491.5V434.5H565V491.5H622ZM559.5 491.5V434.5H503V491.5H559.5ZM497.5 491.5V434.5H440.5V491.5H497.5ZM435.5 491.5V434.5H378.5V491.5H435.5ZM373 491.5V434.5L316.5 434.5V491.5L373 491.5ZM311 491.5V434.5H254V491.5H311ZM249 491.5V434.5H192V491.5H249ZM186.5 491.5V434.5H130V491.5H186.5ZM130 429.5H186.5V372.5H130V429.5ZM130 367H186.5V310.5H130V367ZM130 305H186.5V248L130 248V305ZM130 243L186.5 243V186L130 186V243ZM192 186V243H249V186H192ZM254 186V243H311V186H254ZM316.5 186V243H373V186H316.5ZM378.5 186V243H435.5V186H378.5ZM440.5 186V243L497.5 243V186L440.5 186ZM503 186V243H559.5V186H503ZM565 186V243H622V186H565ZM627 186V243H684V186H627ZM689.5 186V243H746V186H689.5ZM751.5 186V243H808.5V186H751.5ZM813.5 186V243L870.5 243V186L813.5 186ZM876 186V243H932.5V186H876ZM938 186V243H995V186H938ZM1000 186V243H1057V186H1000ZM1062.5 186V243H1119V186H1062.5ZM1124.5 186V243L1181.5 243V186L1124.5 186ZM1181.5 248L1124.5 248V305H1181.5V248ZM1181.5 310.5H1124.5V367H1181.5V310.5ZM1181.5 372.5H1124.5V429.5H1181.5V372.5ZM1119 429.5V372.5H1062.5V429.5H1119ZM1057 429.5V372.5H1000V429.5H1057ZM995 429.5V372.5L938 372.5V429.5L995 429.5ZM932.5 429.5V372.5H876V429.5H932.5ZM870.5 429.5V372.5H813.5V429.5H870.5ZM808.5 429.5V372.5H751.5V429.5H808.5ZM746 429.5V372.5H689.5V429.5H746ZM684 429.5V372.5H627V429.5H684ZM622 429.5V372.5H565V429.5H622ZM559.5 429.5V372.5H503V429.5H559.5ZM497.5 429.5V372.5H440.5V429.5H497.5ZM435.5 429.5V372.5H378.5V429.5H435.5ZM373 429.5V372.5L316.5 372.5V429.5L373 429.5ZM311 429.5V372.5H254V429.5H311ZM249 429.5V372.5H192V429.5H249ZM192 367H249V310.5H192V367ZM192 305H249V248H192V305ZM254 248V305H311V248H254ZM316.5 248V305L373 305V248H316.5ZM378.5 248V305H435.5V248H378.5ZM440.5 248V305H497.5V248L440.5 248ZM503 248V305H559.5V248H503ZM565 248V305H622V248H565ZM627 248V305H684V248H627ZM689.5 248V305H746V248H689.5ZM751.5 248V305H808.5V248H751.5ZM813.5 248V305H870.5V248L813.5 248ZM876 248V305H932.5V248H876ZM938 248V305L995 305V248H938ZM1000 248V305H1057V248H1000ZM1062.5 248V305H1119V248H1062.5ZM1119 310.5H1062.5V367H1119V310.5ZM1057 367V310.5H1000V367H1057ZM995 367V310.5L938 310.5V367L995 367ZM932.5 367V310.5H876V367H932.5ZM870.5 367V310.5H813.5V367H870.5ZM808.5 367V310.5H751.5V367H808.5ZM746 367V310.5H689.5V367H746ZM684 367V310.5H627V367H684ZM622 367V310.5H565V367H622ZM559.5 367V310.5H503V367H559.5ZM497.5 367V310.5H440.5V367H497.5ZM435.5 367V310.5H378.5V367H435.5ZM373 367V310.5L316.5 310.5V367L373 367ZM311 367V310.5H254V367H311Z" fill="url(#paint0_linear)"/>
<defs>
<linearGradient id="paint0_linear" x1="708.5" y1="602" x2="708.5" y2="7.16876e-06" gradientUnits="userSpaceOnUse">
<stop offset="0.370802" stop-color="#3AAED8" stop-opacity="0.52"/>
<stop offset="1" stop-color="#3AAED8" stop-opacity="0"/>
</linearGradient>
</defs>
</svg>
