<svg width="216" height="224" viewBox="0 0 216 224" fill="none" xmlns="http://www.w3.org/2000/svg">
<path d="M101.061 1.95958C105.362 -0.49442 110.638 -0.494419 114.939 1.95958L136.727 14.3927C138.389 15.3415 140.229 15.9393 142.132 16.149L167.067 18.8969C171.988 19.4393 176.257 22.5409 178.294 27.0539L188.612 49.9191C189.4 51.6641 190.537 53.2289 191.953 54.517L210.51 71.3965C214.173 74.7281 215.804 79.7466 214.799 84.5948L209.707 109.158C209.318 111.033 209.318 112.967 209.707 114.842L214.799 139.405C215.804 144.253 214.173 149.272 210.51 152.604L191.953 169.483C190.537 170.771 189.4 172.336 188.612 174.081L178.294 196.946C176.257 201.459 171.988 204.561 167.067 205.103L142.132 207.851C140.229 208.061 138.389 208.658 136.727 209.607L114.939 222.04C110.638 224.494 105.362 224.494 101.061 222.04L79.2734 209.607C77.6107 208.658 75.7711 208.061 73.8682 207.851L48.9334 205.103C44.0119 204.561 39.7429 201.459 37.7063 196.946L27.3876 174.081C26.6001 172.336 25.4632 170.771 24.047 169.483L5.48953 152.604C1.82675 149.272 0.196146 144.253 1.20114 139.405L6.29294 114.842C6.68151 112.967 6.68152 111.033 6.29294 109.158L1.20114 84.5948C0.196146 79.7466 1.82676 74.7281 5.48954 71.3965L24.047 54.5171C25.4631 53.2289 26.6001 51.6641 27.3876 49.9191L37.7063 27.0539C39.7429 22.5409 44.0119 19.4393 48.9334 18.8969L73.8682 16.149C75.7711 15.9393 77.6107 15.3415 79.2734 14.3927L101.061 1.95958Z" fill="#3F3F3F"/>
</svg>
