<svg width="1710" height="662" viewBox="0 0 1710 662" fill="none" xmlns="http://www.w3.org/2000/svg">
<path d="M105 87.5C110.6 58.3 46.6667 31 14 21H1709.5V662H824.5C770.947 611.419 729.435 570.039 665.5 535C623.5 516.667 517.8 493.6 431 548C322.5 616 231 485.5 211 429.5C191 373.5 131 429.5 105 373C79 316.5 145.5 292 105 235.5C64.5 179 98 124 105 87.5Z" fill="#2B8DC5" fill-opacity="0.33"/>
<path d="M109.5 81.5C109.5 29.9 36.5 5.66667 0 0H1702.5V655.5H850.5C816.256 595.354 781.446 554.108 720 513C682.333 493.833 592.7 467 535.5 513C464 570.5 335.5 551 315 513C294.5 475 235 443.5 167 407C99 370.5 139 295.5 109.5 238C80 180.5 109.5 146 109.5 81.5Z" fill="#01659D" fill-opacity="0.16"/>
</svg>
