<svg width="141" height="141" viewBox="0 0 141 141" fill="none" xmlns="http://www.w3.org/2000/svg">
<path d="M32.7531 12.1848C33.5011 12.5445 34.1323 13.108 34.574 13.8107C35.0158 14.5133 35.2501 15.3264 35.25 16.1563C35.25 21.0326 37.083 23.8408 39.3801 27.2601L39.5505 27.5068C41.501 30.4091 44.0625 34.2102 44.0625 39.6563C44.0625 45.2141 41.2601 50.1138 36.989 53.0219C38.1111 53.9619 39.104 55.1193 39.9618 56.5058C42.7583 61.0296 44.0625 67.9444 44.0625 77.8732C44.0625 87.9312 42.7113 100.01 40.5081 109.657C39.4154 114.451 38.0583 118.875 36.4426 122.194C35.6378 123.845 34.6566 125.455 33.4464 126.718C32.2361 127.958 30.3738 129.279 27.9063 129.279C25.4388 129.279 23.5764 127.958 22.372 126.718C21.1454 125.374 20.1346 123.848 19.3758 122.194C17.7543 118.869 16.3971 114.451 15.3044 109.651C13.0128 99.2097 11.8215 88.5569 11.75 77.8673C11.75 67.9386 13.0543 61.0296 15.8508 56.5058C16.6486 55.1927 17.6523 54.0164 18.8235 53.0219C16.6426 51.5412 14.8575 49.5488 13.6244 47.2189C12.3914 44.8889 11.7478 42.2924 11.75 39.6563C11.75 37.4943 11.75 33.7754 14.0001 28.9756C16.2033 24.2756 20.3921 18.8764 28.0884 12.7136C28.737 12.1947 29.5191 11.8698 30.3445 11.7762C31.1698 11.6827 32.0048 11.8243 32.7531 12.1848ZM20.5625 39.6504V39.6563C20.5625 41.604 21.3362 43.4719 22.7134 44.8491C24.0907 46.2263 25.9586 47.0001 27.9063 47.0001C29.8539 47.0001 31.7219 46.2263 33.0991 44.8491C34.4763 43.4719 35.25 41.604 35.25 39.6563C35.25 37.0772 34.1631 35.2912 32.0658 32.1716L31.9953 32.0658C30.6499 30.0683 29.0578 27.7007 27.9298 24.6633C24.7396 27.9063 22.9771 30.5971 21.9843 32.7121C20.5625 35.7436 20.5625 37.8997 20.5625 39.6446V39.6504ZM23.3473 61.1353C21.8903 63.4971 20.5625 68.3381 20.5625 77.8732C20.5625 87.2791 21.8433 98.7001 23.8936 107.695C24.9276 112.218 26.1026 115.89 27.2953 118.334C27.5126 118.787 27.7183 119.163 27.9063 119.48C28.0943 119.163 28.2999 118.787 28.5173 118.334C29.7099 115.89 30.8849 112.213 31.9189 107.695C33.9751 98.7059 35.25 87.2849 35.25 77.8732C35.25 68.3381 33.9223 63.4971 32.4653 61.1353C32.0258 60.3402 31.3617 59.6924 30.5559 59.2729C29.7215 58.9096 28.8155 58.7408 27.9063 58.7794C26.7313 58.7794 25.8911 58.9616 25.2566 59.2729C24.4508 59.6924 23.7867 60.3402 23.3473 61.1353Z" fill="#3AAED8"/>
<path d="M58.7498 87.6374C55.6373 87.1154 52.6097 86.1747 49.7493 84.8409C49.9213 81.5088 49.9702 78.1715 49.8962 74.8358C52.5458 76.6159 55.5362 77.9261 58.7498 78.6546V61.6876C58.7498 59.3503 59.6783 57.1088 61.3309 55.4562C62.9836 53.8035 65.2251 52.8751 67.5623 52.8751H91.0623C91.062 47.9441 89.6828 43.1115 87.0803 38.9233C84.4779 34.7351 80.756 31.3581 76.3352 29.174C71.9144 26.9899 66.9708 26.0856 62.0631 26.5634C57.1554 27.0412 52.4791 28.882 48.5626 31.8778C47.3876 28.6289 45.7132 26.1438 44.5499 24.4166L44.3149 24.0641C49.5934 20.3431 55.7926 18.1437 62.2359 17.7061C68.6791 17.2684 75.1188 18.6092 80.852 21.5822C86.5851 24.5551 91.3913 29.046 94.746 34.5644C98.1007 40.0829 99.8748 46.4169 99.8748 52.8751H120.437C122.775 52.8751 125.016 53.8035 126.669 55.4562C128.321 57.1088 129.25 59.3503 129.25 61.6876V114.563C129.25 116.9 128.321 119.141 126.669 120.794C125.016 122.447 122.775 123.375 120.437 123.375H67.5623C65.2251 123.375 62.9836 122.447 61.3309 120.794C59.6783 119.141 58.7498 116.9 58.7498 114.563V87.6374ZM67.5623 88.0076V114.563H120.437V61.6876H98.7586C96.9282 68.7671 92.9428 75.1027 87.354 79.818C81.7651 84.5333 74.8489 87.3951 67.5623 88.0076ZM89.5583 61.6876H67.5623V79.1539C72.4985 78.6005 77.1792 76.6689 81.069 73.5801C84.9589 70.4912 87.9008 66.3699 89.5583 61.6876Z" fill="white"/>
</svg>
