<svg width="160" height="160" viewBox="0 0 160 160" fill="none" xmlns="http://www.w3.org/2000/svg">
<path d="M99.8399 21.4399L73.1732 141.44L60.1532 138.547L86.8199 18.5466L99.8399 21.4399Z" fill="#3AAED8"/>
<path d="M49.1665 111.873L57.4999 101.46L30.6732 79.9999L57.4999 58.5399L49.1665 48.1266L15.8332 74.7933C15.0522 75.4178 14.4217 76.2101 13.9884 77.1114C13.5551 78.0127 13.3301 78.9999 13.3301 79.9999C13.3301 81 13.5551 81.9872 13.9884 82.8885C14.4217 83.7898 15.0522 84.582 15.8332 85.2066L49.1665 111.873ZM110.833 48.1266L102.5 58.5399L129.327 79.9999L102.5 101.46L110.833 111.873L144.167 85.2066C144.948 84.582 145.578 83.7898 146.011 82.8885C146.445 81.9872 146.67 81 146.67 79.9999C146.67 78.9999 146.445 78.0127 146.011 77.1114C145.578 76.2101 144.948 75.4178 144.167 74.7933L110.833 48.1266Z" fill="white"/>
</svg>
